<?xml version="1.0" encoding="UTF-8" standalone="no"?>
<!DOCTYPE svg PUBLIC "-//W3C//DTD SVG 1.1//EN"
"http://www.w3.org/Graphics/SVG/1.1/DTD/svg11.dtd">


<!-- Page 1 -->
<svg x="0" y="0" width="1663" height="831" viewBox="0 0 1663 831" version="1.1" xmlns="http://www.w3.org/2000/svg" xmlns:xlink="http://www.w3.org/1999/xlink"
style="display: block;margin-left: auto;margin-right: auto;">
<defs>
<clipPath id="c_1"><path d="M0,0H1663V831H0Z"/></clipPath>
<style type="text/css"><![CDATA[
text { white-space: pre; }
path, image { pointer-events: none; }

.s1{
font-size: 61.11px;
font-family: Verdana_7;
fill: #000;
}
.s2{
font-size: 33.61px;
font-family: Verdana_7;
fill: #000;
}

.g0{
fill: #E08D3D;
stroke: #B77B48;
stroke-width: 1.145;
stroke-linecap: butt;
stroke-linejoin: miter;
stroke-miterlimit: 4;
}
.g1{
fill: #F3D8BB;
stroke: #E4CEB4;
stroke-width: 1.145;
stroke-linecap: butt;
stroke-linejoin: miter;
stroke-miterlimit: 4;
}
.g2{
fill: #5491BE;
stroke: #10315C;
stroke-width: 1.145;
stroke-linecap: butt;
stroke-linejoin: miter;
stroke-miterlimit: 4;
}
.g3{
fill: none;
stroke: #000000;
stroke-width: 6.496;
stroke-linecap: butt;
stroke-linejoin: miter;
stroke-miterlimit: 4;
}
.g4{
fill: #696969;
stroke: #696969;
stroke-width: 2.598;
stroke-linecap: butt;
stroke-linejoin: miter;
stroke-miterlimit: 4;
}
.g5{
fill: #696969;
stroke: #696969;
stroke-width: 2.771;
stroke-linecap: butt;
stroke-linejoin: miter;
stroke-miterlimit: 4;
}

]]></style>

</defs>
<path d="M0,0
L0,831
L1663,831
L1663,0 Z " 
fill="#FFFFFF" stroke="none"/>
<g clip-path="url(#c_1)">
<text x="217" y="46" dx="0,0,0,0,0,0,0,0,.2,0,0,0,0,0,0,0,0,0,0,.2,0,0,0,0,0,0,0,0,0,0,.2,-.5,0,0,0,0,0" class="s1">What's commonly thought to drive AMR?</text>
<text x="14" y="524" dx="0,0,0,0,0,.1,0,0,0,0,.1,0,0,0,0,0,0,0,0" class="s2">Intially only some </text>
<text x="44" y="566" dx="0,0,0,0,0,0,.1,0,0,0,0,0,.1,0" class="s2">organisms are </text>
<text x="51" y="608" dx="0,0,0,0,0,0,.1,0,0,0,0,0,.1,0" class="s2">drug-resistant</text>
<text x="497" y="524" dx="0,0,0,0,0,0,0,0,0,0,.1,0" class="s2">Exposure to </text>
<text x="442" y="566" dx="0,0,0,0,0,0,.1,0,0,0,0,.1,0,0,.1,0,0,0,0,.1,0" class="s2">antimicrobials kills </text>
<text x="463" y="608" dx="0,0,0,0,0,0,0,0,0,.1,0,0,0,0,0,0,0" class="s2">only susceptible </text>
<text x="511" y="650" dx="0,0,0,0,0,0,.1,0,0,0" class="s2">organisms </text>
<text x="883" y="524" dx="0,0,0,0,0,0,0,0,0,.1,0,0,0,0,.1,0,0,0,0" class="s2">The drug-resistant </text>
<text x="886" y="566" dx="0,0,0,0,0,0,.1,0,0,0,0,0,0,.1,0,0,-.2,0" class="s2">organisms survive </text>
<text x="860" y="608" dx="0,0,0,0,0,0,0,0,0,0,.1,0,0,0,0,0,0,0,0,0" class="s2">and grow in numbers </text>
<text x="867" y="650" dx="0,0,0,0,0,0,0,0,.1,0,0,0,0,0,0,0,0,.1,0,0,0" class="s2">with less competition</text>
<text x="1368" y="524" class="s2">Some of these </text>
<text x="1321" y="566" dx="0,0,0,0,0,0,.1,0,0,0,0,0,-.2,0,0,0,0,0,0" class="s2">organisms may also </text>
<text x="1344" y="608" dx="0,0,0,0,0,0,0,0,.1,0,0,0,0,0,0,.1,0,0" class="s2">spread their drug </text>
<text x="1329" y="650" dx="0,0,0,0,0,.1,0,0,0,0,0,0,0,.1,0,0,0,0,0,0" class="s2">resistance to others</text>
<path d="M264.6,780.1c6.5,-19.2,26.2,-44.9,34.3,-37.9c8.1,6.9,7.2,12.4,7.2,12.4c0,0,-2,7.5,-10.6,13.1c-8,5.2,-11.4,20.7,-8.3,28.1c7.8,18.8,-17.8,44,-27.6,32c-7.2,-13,-1.4,-29,5,-47.7Z" class="g0"/>
<path d="M660.1,778.3c6.4,-19.2,26.2,-44.8,34.3,-37.9c8.1,7,7.2,12.5,7.2,12.5c0,0,-2,7.5,-10.6,13c-8,5.2,-11.4,20.7,-8.3,28.1c7.8,18.8,-17.8,44,-27.7,32.1c-7.1,-13,-1.3,-29.1,5.1,-47.8Z" class="g1"/>
<path d="M1117.8,778.3c6.4,-19.2,26.2,-44.9,34.3,-37.9c8.1,6.9,7.2,12.4,7.2,12.4c0,0,-2.1,7.5,-10.6,13.1c-8,5.2,-11.4,20.7,-8.4,28c7.9,18.9,-17.8,44.1,-27.6,32.1c-7.2,-13,-1.3,-29,5.1,-47.7Z" class="g2"/>
<text x="327" y="780" dx="0,0,0,0,0,0,0,0,.1,0,0,0" class="s2">susceptible </text>
<text x="348" y="822" dx="0,0,0,0,0,0,.1,0" class="s2">organism</text>
<text x="715" y="778" dx="0,0,0,0,.1,0,0,0,0,0,0,0,0,0,0,.1,0,0,0" class="s2">killed susceptible </text>
<text x="787" y="820" dx="0,0,0,0,0,0,.1,0" class="s2">organism</text>
<text x="1179" y="774" dx="0,0,0,0,0,0,.1,0,0,0,0,0,.1,0,0" class="s2">drug-resistant </text>
<text x="1226" y="816" dx="0,0,0,0,0,0,.1,0" class="s2">organism</text>
<path d="M332,303c0,88.2,-73.6,159.8,-164.4,159.8C76.8,462.8,3.2,391.2,3.2,303C3.2,214.8,76.8,143.3,167.6,143.3C258.4,143.3,332,214.8,332,303ZM767.4,304.2c0,88.2,-73.6,159.7,-164.4,159.7c-90.8,0,-164.3,-71.5,-164.3,-159.7C438.7,216,512.2,144.5,603,144.5c90.8,0,164.4,71.5,164.4,159.7m449.5,2.3c0,88.2,-73.6,159.7,-164.4,159.7c-90.8,0,-164.4,-71.5,-164.4,-159.7c0,-88.2,73.6,-159.7,164.4,-159.7c90.8,0,164.4,71.5,164.4,159.7m443.6,1.6c0,88.3,-73.6,159.8,-164.4,159.8c-90.8,0,-164.4,-71.5,-164.4,-159.8c0,-88.2,73.6,-159.7,164.4,-159.7c90.8,0,164.4,71.5,164.4,159.7" class="g3"/>
<path d="M73.3,243.9C79.7,224.7,99.5,199,107.6,206c8.1,6.9,7.2,12.4,7.2,12.4c0,0,-2.1,7.5,-10.6,13.1c-8,5.2,-11.4,20.7,-8.4,28.1c7.9,18.8,-17.8,44,-27.6,32c-7.1,-13,-1.3,-29,5.1,-47.7Z" class="g0"/>
<path d="M254.1,283.1c20.2,.9,50.4,12.6,46,22.4c-4.5,9.7,-10,10.4,-10,10.4c0,0,-7.8,.1,-15.5,-6.6c-7.2,-6.2,-23,-5.1,-29.3,-.1c-15.9,12.7,-47.2,-4.8,-38.5,-17.6c10.5,-10.5,27.5,-9.4,47.3,-8.5Z" class="g0"/>
<path d="M97,383.7C77.3,378.8,50.1,361.3,56.3,352.6c6.3,-8.6,11.8,-8.2,11.8,-8.2c0,0,7.7,1.4,13.9,9.5c5.9,7.6,21.6,9.6,28.7,6c18.1,-9.4,45.3,14.1,34.2,24.9C132.6,393,116.1,388.5,97,383.7Z" class="g0"/>
<path d="M219.4,193.7c12.8,15.7,24,46.1,13.8,49.3c-10.2,3.1,-14.4,-.6,-14.4,-.6c0,0,-5.3,-5.7,-5.4,-15.9c-.1,-9.6,-11.4,-20.7,-19.3,-22.1C174,201,166.4,165.9,181.8,164c14.8,.8,25.2,14.3,37.6,29.7Z" class="g0"/>
<path d="M202.2,420.5c-18,9.3,-50,14.1,-51,3.5c-1,-10.6,3.4,-14,3.4,-14c0,0,6.7,-4,16.7,-2c9.4,1.8,22.6,-7,25.5,-14.5c7.4,-18.9,43.4,-19.3,42.2,-3.9c-3.9,14.4,-19.2,21.9,-36.8,30.9Z" class="g0"/>
<path d="M242.1,332.1c18.8,7.5,43.4,28.6,36,36.3c-7.4,7.7,-12.8,6.5,-12.8,6.5c0,0,-7.4,-2.4,-12.5,-11.2c-4.8,-8.3,-20.1,-12.5,-27.6,-9.9c-19.2,6.9,-43,-20.1,-30.5,-29.2c13.3,-6.5,29,.2,47.4,7.5Z" class="g0"/>
<path d="M135.6,290.8c6.5,-19.2,26.2,-44.8,34.3,-37.9c8.1,6.9,7.2,12.4,7.2,12.4c0,0,-2,7.5,-10.6,13.1c-8,5.2,-11.4,20.7,-8.3,28.1c7.8,18.8,-17.8,44,-27.6,32.1c-7.2,-13.1,-1.4,-29.1,5,-47.8Z" class="g2"/>
<path d="M501.5,253.9c6.4,-19.2,26.2,-44.8,34.3,-37.9c8.1,7,7.2,12.5,7.2,12.5c0,0,-2.1,7.5,-10.6,13c-8,5.2,-11.4,20.7,-8.4,28.1c7.9,18.8,-17.8,44,-27.6,32.1c-7.1,-13,-1.3,-29.1,5.1,-47.8Z" class="g1"/>
<path d="M682.3,293.2c20.2,.8,50.4,12.6,46,22.3c-4.4,9.7,-10,10.4,-10,10.4c0,0,-7.8,.1,-15.5,-6.5c-7.2,-6.3,-23,-5.2,-29.3,-.2C657.6,332,626.3,314.4,635,301.6c10.5,-10.5,27.5,-9.3,47.3,-8.4Z" class="g1"/>
<path d="M525.2,393.7c-19.7,-4.8,-46.9,-22.4,-40.7,-31c6.3,-8.7,11.8,-8.2,11.8,-8.2c0,0,7.7,1.4,13.9,9.4c5.9,7.6,21.6,9.7,28.7,6c18.1,-9.3,45.3,14.1,34.2,24.9c-12.3,8.2,-28.8,3.7,-47.9,-1.1Z" class="g1"/>
<path d="M647.6,203.8c12.8,15.7,24,46.1,13.8,49.2c-10.2,3.2,-14.4,-.5,-14.4,-.5c0,0,-5.3,-5.8,-5.4,-16c-.1,-9.5,-11.4,-20.7,-19.3,-22C602.2,211,594.6,175.9,610,174c14.8,.9,25.2,14.4,37.6,29.8Z" class="g1"/>
<path d="M630.4,430.5c-18,9.4,-50,14.2,-51,3.5c-1,-10.6,3.4,-13.9,3.4,-13.9c0,0,6.7,-4,16.7,-2.1c9.4,1.8,22.6,-7,25.5,-14.4c7.4,-19,43.4,-19.4,42.1,-3.9C663.3,414,648,421.5,630.4,430.5Z" class="g1"/>
<path d="M670.3,342.2c18.8,7.5,43.4,28.5,36,36.2c-7.4,7.8,-12.8,6.6,-12.8,6.6c0,0,-7.4,-2.4,-12.5,-11.3c-4.8,-8.3,-20.1,-12.5,-27.6,-9.8c-19.2,6.8,-43,-20.1,-30.5,-29.3c13.3,-6.5,29,.2,47.4,7.6Z" class="g1"/>
<path d="M563.8,300.9c6.5,-19.3,26.2,-44.9,34.3,-38c8.1,7,7.2,12.5,7.2,12.5c0,0,-2,7.5,-10.6,13.1c-8,5.2,-11.4,20.6,-8.3,28c7.8,18.8,-17.8,44,-27.6,32.1c-7.2,-13,-1.4,-29,5,-47.7Z" class="g2"/>
<path d="M928,295c-7.2,-19,-8.3,-51.3,2.4,-51.1c10.7,.2,13.5,5,13.5,5c0,0,3.2,7.1,.1,16.8c-2.9,9.2,4.3,23.3,11.4,27c18,9.6,14.2,45.3,-1,42.3C940.6,329.6,935,313.5,928,295Z" class="g2"/>
<path d="M1060.4,260.3c20.3,.9,50.3,12.8,45.9,22.5c-4.4,9.8,-10,10.4,-10,10.4c0,0,-7.7,.1,-15.5,-6.6c-7.2,-6.2,-23,-5.2,-29.2,-.3c-16,12.7,-47.3,-4.9,-38.5,-17.7c10.6,-10.5,27.6,-9.3,47.3,-8.3Z" class="g2"/>
<path d="M1146.6,291.7c6.4,-19.2,26.2,-44.9,34.3,-37.9c8.1,6.9,7.2,12.4,7.2,12.4c0,0,-2,7.5,-10.6,13.1c-8,5.2,-11.4,20.7,-8.3,28.1c7.8,18.8,-17.8,44,-27.7,32c-7.1,-13,-1.3,-29,5.1,-47.7Z" class="g2"/>
<path d="M1029.6,357c-2.5,20.1,-16.8,49.2,-26.1,44C994.2,395.8,994,390.2,994,390.2c0,0,.5,-7.7,7.8,-14.9c6.8,-6.7,7.1,-22.5,2.6,-29.2c-11.4,-16.9,8.7,-46.6,20.7,-36.9c9.6,11.4,7.1,28.2,4.5,47.8Z" class="g2"/>
<path d="M1087.2,376.7c19.4,-5.6,51.8,-3.8,50.6,6.8c-1.1,10.6,-6.2,13,-6.2,13c0,0,-7.3,2.5,-16.7,-1.4c-8.9,-3.6,-23.5,2.3,-27.9,9.1c-11.1,17,-46.3,10.2,-42.1,-4.7c6.7,-13.2,23.2,-17.5,42.3,-22.8Z" class="g2"/>
<path d="M1052.4,179.1c20.2,1.6,49.8,14.5,45.1,24.1c-4.8,9.5,-10.3,10,-10.3,10c0,0,-7.8,-.1,-15.3,-7.1c-7,-6.5,-22.8,-6,-29.3,-1.2c-16.3,12.1,-47,-6.6,-37.8,-19c10.9,-10.2,27.9,-8.4,47.6,-6.8Z" class="g2"/>
<path d="M1406.7,297.4c6.4,-19.2,26.2,-44.9,34.3,-38c8.1,7,7.2,12.5,7.2,12.5c0,0,-2.1,7.5,-10.6,13.1c-8,5.2,-11.4,20.7,-8.4,28c7.9,18.9,-17.7,44.1,-27.6,32.1c-7.1,-13,-1.3,-29,5.1,-47.7Z" class="g2"/>
<path d="M1530.3,299c6.4,-19.2,26.2,-44.9,34.3,-37.9c8.1,6.9,7.2,12.4,7.2,12.4c0,0,-2.1,7.5,-10.6,13.1c-8,5.2,-11.4,20.7,-8.4,28.1c7.9,18.8,-17.8,44,-27.6,32c-7.2,-13,-1.3,-29,5.1,-47.7Z" class="g0"/>
<path d="M1443.8,303l59.1,.6" class="g4"/>
<path fill-rule="evenodd" d="M1514.8,303.7l-18,10.2l.2,-20.8Z" class="g5"/>

</g>

<!-- Any embedded fonts defined here -->
<style type="text/css" ><![CDATA[

@font-face {
	font-family: Verdana_7;
	src: url("fonts/Verdana_7.woff") format("woff");
}

]]></style>

</svg>
